<svg xmlns="http://www.w3.org/2000/svg" viewBox="0 0 400 400">
  <defs>
    <linearGradient id="bg-gradient" x1="0%" y1="0%" x2="100%" y2="100%">
      <stop offset="0%" stop-color="#001a2e" />
      <stop offset="100%" stop-color="#00304d" />
    </linearGradient>
    <filter id="glow" x="-20%" y="-20%" width="140%" height="140%">
      <feGaussianBlur stdDeviation="5" result="blur" />
      <feComposite in="SourceGraphic" in2="blur" operator="over" />
    </filter>
  </defs>
  <rect width="100%" height="100%" fill="url(#bg-gradient)" />
  
  <!-- Digital wrist device -->
  <g transform="translate(200, 200)">
    <!-- Wrist band -->
    <path d="M-100,-30 C-110,-30 -120,-20 -120,0 C-120,20 -110,30 -100,30 L100,30 C110,30 120,20 120,0 C120,-20 110,-30 100,-30 Z" fill="#111" stroke="#333" stroke-width="2" />
    
    <!-- Screen -->
    <rect x="-80" y="-60" width="160" height="120" rx="10" fill="#000" stroke="#00ffff" stroke-width="2" filter="url(#glow)" />
    
    <!-- Digital interface elements -->
    <circle cx="0" cy="0" r="40" fill="none" stroke="#00ffff" stroke-width="2" />
    <circle cx="0" cy="0" r="30" fill="none" stroke="#00ffff" stroke-width="1" stroke-dasharray="2,2" />
    
    <!-- Data visualization -->
    <path d="M-60,-30 L-40,-10 L-20,-40 L0,-20 L20,-30 L40,-5 L60,-25" fill="none" stroke="#00ffff" stroke-width="2" />
    
    <!-- Icons -->
    <rect x="-60" y="30" width="20" height="20" rx="5" fill="none" stroke="#00ffff" stroke-width="1" />
    <rect x="-30" y="30" width="20" height="20" rx="5" fill="none" stroke="#00ffff" stroke-width="1" />
    <rect x="0" y="30" width="20" height="20" rx="5" fill="none" stroke="#00ffff" stroke-width="1" />
    <rect x="30" y="30" width="20" height="20" rx="5" fill="none" stroke="#00ffff" stroke-width="1" />
    
    <!-- Badge icon -->
    <circle cx="0" cy="0" r="20" fill="#00ffff" fill-opacity="0.2" stroke="#00ffff" stroke-width="1" />
    <path d="M-10,-5 L0,5 L10,-5 M0,5 L0,15" stroke="#00ffff" stroke-width="2" />
    <circle cx="0" cy="-5" r="3" fill="#00ffff" />
  </g>
</svg>