<svg xmlns="http://www.w3.org/2000/svg" viewBox="0 0 800 600">
  <defs>
    <linearGradient id="bg-gradient" x1="0%" y1="0%" x2="100%" y2="100%">
      <stop offset="0%" stop-color="#f5f5f5" />
      <stop offset="100%" stop-color="#e0e0e0" />
    </linearGradient>
  </defs>
  <rect width="100%" height="100%" fill="url(#bg-gradient)" />
  
  <!-- Fitness studio with large windows -->
  <rect x="0" y="0" width="800" height="150" fill="#a0d8ef" />
  <rect x="50" y="50" width="100" height="100" fill="#a0d8ef" stroke="#fff" stroke-width="5" />
  <rect x="200" y="50" width="100" height="100" fill="#a0d8ef" stroke="#fff" stroke-width="5" />
  <rect x="350" y="50" width="100" height="100" fill="#a0d8ef" stroke="#fff" stroke-width="5" />
  <rect x="500" y="50" width="100" height="100" fill="#a0d8ef" stroke="#fff" stroke-width="5" />
  <rect x="650" y="50" width="100" height="100" fill="#a0d8ef" stroke="#fff" stroke-width="5" />
  
  <!-- Floor -->
  <rect x="0" y="400" width="800" height="200" fill="#ccc" />
  
  <!-- Group of people doing fitness -->
  <g transform="translate(400, 300)">
    <!-- Row 1 -->
    <g transform="translate(-300, 0)">
      <circle cx="0" cy="-50" r="20" fill="#333" />
      <rect x="-10" y="-30" width="20" height="40" fill="#4a90e2" />
      <rect x="-15" y="10" width="10" height="40" fill="#333" />
      <rect x="5" y="10" width="10" height="40" fill="#333" />
      <rect x="-25" y="-20" width="10" height="30" fill="#4a90e2" />
      <rect x="15" y="-20" width="10" height="30" fill="#4a90e2" />
    </g>
    
    <g transform="translate(-200, 0)">
      <circle cx="0" cy="-50" r="20" fill="#333" />
      <rect x="-10" y="-30" width="20" height="40" fill="#5cb85c" />
      <rect x="-15" y="10" width="10" height="40" fill="#333" />
      <rect x="5" y="10" width="10" height="40" fill="#333" />
      <rect x="-25" y="-20" width="10" height="30" fill="#5cb85c" />
      <rect x="15" y="-20" width="10" height="30" fill="#5cb85c" />
    </g>
    
    <g transform="translate(-100, 0)">
      <circle cx="0" cy="-50" r="20" fill="#333" />
      <rect x="-10" y="-30" width="20" height="40" fill="#4a90e2" />
      <rect x="-15" y="10" width="10" height="40" fill="#333" />
      <rect x="5" y="10" width="10" height="40" fill="#333" />
      <rect x="-25" y="-20" width="10" height="30" fill="#4a90e2" />
      <rect x="15" y="-20" width="10" height="30" fill="#4a90e2" />
    </g>
    
    <!-- Row 2 -->
    <g transform="translate(-250, 100)">
      <circle cx="0" cy="-50" r="20" fill="#333" />
      <rect x="-10" y="-30" width="20" height="40" fill="#5cb85c" />
      <rect x="-15" y="10" width="10" height="40" fill="#333" />
      <rect x="5" y="10" width="10" height="40" fill="#333" />
      <rect x="-25" y="-20" width="10" height="30" fill="#5cb85c" />
      <rect x="15" y="-20" width="10" height="30" fill="#5cb85c" />
    </g>
    
    <g transform="translate(-150, 100)">
      <circle cx="0" cy="-50" r="20" fill="#333" />
      <rect x="-10" y="-30" width="20" height="40" fill="#4a90e2" />
      <rect x="-15" y="10" width="10" height="40" fill="#333" />
      <rect x="5" y="10" width="10" height="40" fill="#333" />
      <rect x="-25" y="-20" width="10" height="30" fill="#4a90e2" />
      <rect x="15" y="-20" width="10" height="30" fill="#4a90e2" />
    </g>
    
    <!-- Row 1 (right side) -->
    <g transform="translate(0, 0)">
      <circle cx="0" cy="-50" r="20" fill="#333" />
      <rect x="-10" y="-30" width="20" height="40" fill="#5cb85c" />
      <rect x="-15" y="10" width="10" height="40" fill="#333" />
      <rect x="5" y="10" width="10" height="40" fill="#333" />
      <rect x="-25" y="-20" width="10" height="30" fill="#5cb85c" />
      <rect x="15" y="-20" width="10" height="30" fill="#5cb85c" />
    </g>
    
    <g transform="translate(100, 0)">
      <circle cx="0" cy="-50" r="20" fill="#333" />
      <rect x="-10" y="-30" width="20" height="40" fill="#4a90e2" />
      <rect x="-15" y="10" width="10" height="40" fill="#333" />
      <rect x="5" y="10" width="10" height="40" fill="#333" />
      <rect x="-25" y="-20" width="10" height="30" fill="#4a90e2" />
      <rect x="15" y="-20" width="10" height="30" fill="#4a90e2" />
    </g>
    
    <g transform="translate(200, 0)">
      <circle cx="0" cy="-50" r="20" fill="#333" />
      <rect x="-10" y="-30" width="20" height="40" fill="#5cb85c" />
      <rect x="-15" y="10" width="10" height="40" fill="#333" />
      <rect x="5" y="10" width="10" height="40" fill="#333" />
      <rect x="-25" y="-20" width="10" height="30" fill="#5cb85c" />
      <rect x="15" y="-20" width="10" height="30" fill="#5cb85c" />
    </g>
    
    <!-- Row 2 (right side) -->
    <g transform="translate(50, 100)">
      <circle cx="0" cy="-50" r="20" fill="#333" />
      <rect x="-10" y="-30" width="20" height="40" fill="#4a90e2" />
      <rect x="-15" y="10" width="10" height="40" fill="#333" />
      <rect x="5" y="10" width="10" height="40" fill="#333" />
      <rect x="-25" y="-20" width="10" height="30" fill="#4a90e2" />
      <rect x="15" y="-20" width="10" height="30" fill="#4a90e2" />
    </g>
    
    <g transform="translate(150, 100)">
      <circle cx="0" cy="-50" r="20" fill="#333" />
      <rect x="-10" y="-30" width="20" height="40" fill="#5cb85c" />
      <rect x="-15" y="10" width="10" height="40" fill="#333" />
      <rect x="5" y="10" width="10" height="40" fill="#333" />
      <rect x="-25" y="-20" width="10" height="30" fill="#5cb85c" />
      <rect x="15" y="-20" width="10" height="30" fill="#5cb85c" />
    </g>
  </g>
</svg>