<svg xmlns="http://www.w3.org/2000/svg" viewBox="0 0 400 400">
  <defs>
    <linearGradient id="bg-gradient" x1="0%" y1="0%" x2="100%" y2="100%">
      <stop offset="0%" stop-color="#8a1a8a" />
      <stop offset="100%" stop-color="#4a0080" />
    </linearGradient>
  </defs>
  <rect width="100%" height="100%" fill="url(#bg-gradient)" />
  
  <!-- Neon lights -->
  <line x1="50" y1="0" x2="50" y2="400" stroke="#ff00ff" stroke-width="8" stroke-opacity="0.7" />
  <line x1="100" y1="0" x2="100" y2="400" stroke="#00ffff" stroke-width="8" stroke-opacity="0.7" />
  <line x1="350" y1="0" x2="350" y2="400" stroke="#ff00ff" stroke-width="8" stroke-opacity="0.7" />
  
  <!-- Fitness person silhouette -->
  <path d="M200,80 C230,80 255,105 255,135 C255,165 230,190 200,190 C170,190 145,165 145,135 C145,105 170,80 200,80 Z" fill="#000" />
  <path d="M170,190 L170,280 L185,280 L185,230 L215,230 L215,280 L230,280 L230,190 Z" fill="#000" />
  <path d="M185,280 L170,350 L185,350 L195,300 L205,300 L215,350 L230,350 L215,280 Z" fill="#000" />
  
  <!-- Sports bra outline -->
  <path d="M185,135 C185,125 190,115 200,115 C210,115 215,125 215,135 C215,145 210,155 200,155 C190,155 185,145 185,135 Z" fill="none" stroke="#fff" stroke-width="2" />
  <path d="M185,135 L185,165 C185,175 190,185 200,185 C210,185 215,175 215,165 L215,135" fill="none" stroke="#fff" stroke-width="2" />
</svg>